<svg xmlns="http://www.w3.org/2000/svg" xmlns:xlink="http://www.w3.org/1999/xlink" width="500" zoomAndPan="magnify" viewBox="0 0 375 374.999991" height="500" preserveAspectRatio="xMidYMid meet" version="1.0"><defs><g/><clipPath id="0ffe149cd5"><path d="M 67.5 0 L 307.5 0 C 325.402344 0 342.570312 7.113281 355.230469 19.769531 C 367.886719 32.429688 375 49.597656 375 67.5 L 375 307.5 C 375 325.402344 367.886719 342.570312 355.230469 355.230469 C 342.570312 367.886719 325.402344 375 307.5 375 L 67.5 375 C 49.597656 375 32.429688 367.886719 19.769531 355.230469 C 7.113281 342.570312 0 325.402344 0 307.5 L 0 67.5 C 0 49.597656 7.113281 32.429688 19.769531 19.769531 C 32.429688 7.113281 49.597656 0 67.5 0 Z M 67.5 0 " clip-rule="nonzero"/></clipPath></defs><g clip-path="url(#0ffe149cd5)"><rect x="-37.5" width="450" fill="#2b2b2b" y="-37.499999" height="449.999989" fill-opacity="1"/></g><g fill="#ffffff" fill-opacity="1"><g transform="translate(56.882123, 208.097335)"><g><path d="M 81.171875 -109.078125 L 128.34375 0 L 58.21875 0 L 38.53125 -47.03125 L 28.609375 -47.03125 L 47.875 0 L 2.265625 0 L 25.5 -54.96875 L 35.125 -54.96875 L 30.453125 -66.4375 L 48.59375 -109.078125 Z M 81.171875 -109.078125 "/></g></g></g><g fill="#ffffff" fill-opacity="1"><g transform="translate(185.223048, 208.097335)"><g><path d="M 72.25 -108.359375 L 72.25 -2.6875 L 72.671875 -2.6875 L 130.46875 -53.828125 L 130.46875 0 L 9.484375 0 L 9.484375 -108.359375 Z M 72.25 -108.359375 "/></g></g></g><g fill="#c1ff72" fill-opacity="1"><g transform="translate(156.853412, 281.254669)"><g><path d="M 9.640625 0.3125 C 8.429688 0.3125 7.363281 0.0664062 6.4375 -0.421875 C 5.519531 -0.910156 4.816406 -1.585938 4.328125 -2.453125 C 3.835938 -3.328125 3.59375 -4.3125 3.59375 -5.40625 C 3.59375 -6.5 3.835938 -7.476562 4.328125 -8.34375 C 4.816406 -9.207031 5.519531 -9.890625 6.4375 -10.390625 C 7.363281 -10.890625 8.429688 -11.140625 9.640625 -11.140625 C 10.867188 -11.140625 11.941406 -10.894531 12.859375 -10.40625 C 13.785156 -9.914062 14.492188 -9.238281 14.984375 -8.375 C 15.472656 -7.507812 15.71875 -6.53125 15.71875 -5.4375 C 15.71875 -3.769531 15.164062 -2.394531 14.0625 -1.3125 C 12.957031 -0.226562 11.484375 0.3125 9.640625 0.3125 Z M 9.640625 0.3125 "/></g></g></g><g fill="#c1ff72" fill-opacity="1"><g transform="translate(176.163863, 281.254669)"><g><path d="M 16.0625 0 L 6.5 0 L 6.5 -49.96875 L 17.8125 -49.96875 L 37.875 -17.78125 L 38.765625 -17.90625 L 38.765625 -49.96875 L 48.265625 -49.96875 L 48.265625 0 L 38.140625 0 L 16.921875 -34.390625 L 16.0625 -34.25 Z M 16.0625 0 "/></g></g></g><g fill="#c1ff72" fill-opacity="1"><g transform="translate(230.950846, 281.254669)"><g><path d="M 6.5 0 L 6.5 -49.96875 L 26.5625 -49.96875 C 31.726562 -49.96875 35.628906 -48.773438 38.265625 -46.390625 C 40.898438 -44.015625 42.21875 -40.726562 42.21875 -36.53125 C 42.21875 -33.507812 41.445312 -31.03125 39.90625 -29.09375 C 38.363281 -27.15625 36.066406 -25.671875 33.015625 -24.640625 L 33.015625 -23.921875 C 34.585938 -23.242188 35.859375 -22.234375 36.828125 -20.890625 C 37.796875 -19.546875 38.710938 -17.550781 39.578125 -14.90625 L 44.578125 0 L 34.421875 0 L 29.53125 -14.9375 C 29.03125 -16.4375 28.46875 -17.601562 27.84375 -18.4375 C 27.21875 -19.269531 26.421875 -19.875 25.453125 -20.25 C 24.484375 -20.625 23.222656 -20.8125 21.671875 -20.8125 L 16.375 -20.8125 L 16.375 0 Z M 25.359375 -28.640625 C 30.148438 -28.640625 32.546875 -30.875 32.546875 -35.34375 C 32.546875 -39.875 30.148438 -42.140625 25.359375 -42.140625 L 16.375 -42.140625 L 16.375 -28.640625 Z M 25.359375 -28.640625 "/></g></g></g><g fill="#c1ff72" fill-opacity="1"><g transform="translate(277.671874, 281.254669)"><g><path d="M 16.375 -49.96875 L 16.375 -8.265625 L 38.828125 -8.265625 L 38.828125 0 L 6.5 0 L 6.5 -49.96875 Z M 16.375 -49.96875 "/></g></g></g></svg>